<svg version="1.1" id="Layer_1" xmlns="http://www.w3.org/2000/svg" xmlns:xlink="http://www.w3.org/1999/xlink" x="0px" y="0px"
	 width="100%" viewBox="0 0 1024 1024" enable-background="new 0 0 1024 1024" xml:space="preserve">
<path fill="#000000" opacity="1.000000" stroke="none" 
	d="
M310.056396,486.263184 
	C320.914154,466.347687 338.945099,457.844452 359.405701,462.699921 
	C366.073242,464.282196 371.615753,467.839630 376.757690,472.213806 
	C379.044434,474.159088 379.223480,475.913055 377.015747,477.993622 
	C376.177277,478.783752 375.609253,479.852783 374.842651,480.728821 
	C372.770874,483.096344 371.073761,486.352997 368.452545,487.530090 
	C365.472870,488.868195 363.539093,484.893555 360.958435,483.551727 
	C345.105682,475.309082 326.764954,485.287079 325.126129,503.170288 
	C323.815765,517.469666 330.846405,528.364258 343.690643,531.871216 
	C351.620331,534.036377 358.441925,531.400269 364.720123,526.781311 
	C367.517090,524.723511 366.913574,521.621643 366.252716,518.962219 
	C365.605927,516.359741 362.953918,517.231323 361.099396,517.213745 
	C349.221405,517.100769 350.982941,518.489441 350.554779,506.325104 
	C350.384003,501.473572 352.023682,499.794617 356.779694,499.968170 
	C364.101318,500.235382 371.440735,500.137054 378.769958,500.022675 
	C382.697906,499.961395 384.505707,501.334961 384.359344,505.562225 
	C384.105774,512.884644 384.082672,520.230164 384.368469,527.550232 
	C384.526215,531.590393 383.102051,534.630493 380.386475,537.333679 
	C367.758087,549.904602 353.159576,556.057800 335.520264,549.743408 
	C317.625183,543.337524 308.246033,529.818481 305.661224,511.315063 
	C304.452393,502.661591 306.109772,494.433685 310.056396,486.263184 
z"/>
<path fill="#000000" opacity="1.000000" stroke="none" 
	d="
M540.590820,548.694580 
	C538.960632,547.849670 537.653931,547.185059 536.218079,546.454712 
	C532.159546,552.918091 526.034424,549.997131 520.729065,550.012878 
	C517.968506,550.021057 518.671753,547.017578 518.663086,545.170410 
	C518.598083,531.344727 518.625854,517.518616 518.625305,503.692657 
	C518.624756,491.032745 518.753235,478.370758 518.552612,465.714050 
	C518.485962,461.509430 519.653564,459.692444 524.168457,459.787048 
	C538.396362,460.085083 536.137573,458.463043 536.320618,471.596649 
	C536.412781,478.210083 536.336670,484.825867 536.336670,492.242432 
	C545.036804,487.049347 553.567139,485.220062 562.692139,488.178528 
	C569.069580,490.246216 574.294373,493.935669 578.202332,499.404602 
	C586.653992,511.232269 586.420288,528.979797 577.643188,540.098267 
	C569.913879,549.889587 555.622925,556.059143 540.590820,548.694580 
M539.170837,508.763824 
	C537.508240,510.971558 536.962524,513.625427 536.518616,516.223267 
	C535.077698,524.654663 538.943420,532.425720 545.589233,534.836304 
	C553.211426,537.601074 561.401733,534.437622 565.201233,527.261475 
	C568.944946,520.190674 566.841431,510.830902 560.458984,506.160095 
	C554.082031,501.493317 545.580200,502.310608 539.170837,508.763824 
z"/>
<path fill="#000000" opacity="1.000000" stroke="none" 
	d="
M600.890137,459.835999 
	C608.636475,459.890717 608.503845,459.890472 608.490356,466.851196 
	C608.467102,478.836884 608.609131,490.823090 608.737122,502.808533 
	C608.750854,504.095459 608.635620,505.495270 609.995300,507.095367 
	C614.474609,502.415771 619.084351,497.940186 623.276245,493.102539 
	C626.140930,489.796570 629.281616,488.183807 633.687561,488.629242 
	C638.246582,489.090179 642.905701,488.115021 647.425293,489.202423 
	C647.908020,491.519196 646.225037,492.404236 645.160583,493.550659 
	C639.721802,499.408539 634.354553,505.341980 628.699646,510.985870 
	C626.150085,513.530518 626.177490,515.488403 628.228516,518.256592 
	C634.573303,526.820190 640.743774,535.513428 646.928040,544.194702 
	C648.063171,545.788147 649.558594,547.206116 650.123962,550.131775 
	C643.602417,550.131775 637.249756,550.301331 630.915161,550.037231 
	C628.779297,549.948242 627.989685,547.504700 626.892090,545.878601 
	C622.738892,539.725281 618.635193,533.538513 614.503540,527.350220 
	C609.557495,529.943176 608.318115,533.537720 608.320190,538.338013 
	C608.326233,552.436035 610.452271,549.941345 596.162537,550.421631 
	C591.526917,550.577454 590.638489,548.659668 590.663025,544.528381 
	C590.811401,519.542542 590.724792,494.555420 590.751831,469.568756 
	C590.763000,459.225159 589.687134,459.811432 600.890137,459.835999 
z"/>
<path fill="#000000" opacity="1.000000" stroke="none" 
	d="
M445.744690,503.967773 
	C455.633362,486.225555 473.049042,481.958618 490.493347,492.699036 
	C493.286835,489.307770 502.720276,487.193909 506.498413,489.039459 
	C508.211548,489.876282 508.186096,491.403748 508.188263,492.869781 
	C508.214630,510.679474 508.173218,528.489319 508.230835,546.298767 
	C508.240601,549.320801 506.936646,550.523132 504.009003,550.345337 
	C502.350983,550.244629 500.675354,550.248657 499.018036,550.360107 
	C495.343018,550.606995 491.918549,550.489807 491.144653,545.468140 
	C480.452789,553.299927 469.586365,554.175537 458.427826,548.226257 
	C443.623138,540.333008 438.209045,521.486938 445.744690,503.967773 
M461.921356,510.569519 
	C455.024963,522.477539 463.660492,534.707947 472.935364,535.713135 
	C480.626892,536.546753 487.334137,532.572632 489.416962,525.787476 
	C491.922028,517.626770 489.339264,508.549957 483.566742,505.227600 
	C476.376282,501.089081 468.138245,502.912781 461.921356,510.569519 
z"/>
<path fill="#000000" opacity="1.000000" stroke="none" 
	d="
M675.786377,532.109253 
	C668.687378,517.827576 661.738831,503.886932 654.430664,489.224884 
	C661.139221,488.315674 666.888367,488.625549 672.618591,488.883301 
	C674.600403,488.972412 675.118591,490.889252 675.855835,492.340698 
	C679.398315,499.315460 682.877380,506.322571 686.436951,513.288513 
	C687.251160,514.881958 687.754028,516.732727 690.070068,518.123657 
	C693.768433,510.105835 697.664001,502.286316 700.974060,494.226288 
	C702.682312,490.066437 704.905334,488.147247 709.523438,488.596924 
	C713.603882,488.994263 717.753601,488.680145 721.696777,488.680145 
	C722.612671,491.507050 721.262390,493.190155 720.477417,494.938538 
	C709.300537,519.835754 697.990784,544.673889 686.950562,569.631348 
	C685.111572,573.788513 682.671509,575.261902 678.215637,575.187683 
	C662.684326,574.929016 664.413025,575.991272 670.136780,562.572693 
	C672.094910,557.982300 673.928040,553.275146 676.477417,549.015808 
	C679.965942,543.187561 680.015930,537.846924 675.786377,532.109253 
z"/>
<path fill="#000000" opacity="1.000000" stroke="none" 
	d="
M392.780945,511.000061 
	C392.794556,504.679108 392.871063,498.857361 392.800323,493.037384 
	C392.761627,489.853821 394.143188,488.465210 397.323792,488.672516 
	C399.145050,488.791229 401.011780,488.892761 402.804779,488.633667 
	C407.471588,487.959259 410.169434,489.686829 410.437683,494.589905 
	C412.606537,494.613129 413.298615,492.820221 414.510712,491.845306 
	C420.886169,486.717621 428.016479,485.900543 435.691895,487.949310 
	C437.341705,488.389648 438.274353,489.407440 438.186340,491.172455 
	C438.128479,492.332306 438.202087,493.556000 437.852570,494.632843 
	C436.926331,497.486023 438.427765,501.051270 436.236023,503.266693 
	C433.975891,505.551239 430.872711,503.231293 428.119629,503.333893 
	C416.886444,503.752594 411.127502,509.602142 411.118988,520.893311 
	C411.112823,529.042847 411.033569,537.192932 411.111877,545.341553 
	C411.145172,548.802979 410.016907,550.484802 406.197540,550.395569 
	C390.294006,550.023865 393.073486,552.522034 392.821259,537.445374 
	C392.676636,528.799133 392.786865,520.148621 392.780945,511.000061 
z"/>
</svg>